<?xml version="1.0" encoding="utf-8"?>
<!-- Generator: Adobe Illustrator 27.5.0, SVG Export Plug-In . SVG Version: 6.00 Build 0)  -->
<svg version="1.1" xmlns="http://www.w3.org/2000/svg" xmlns:xlink="http://www.w3.org/1999/xlink" x="0px" y="0px"
	 viewBox="0 0 500 500" style="enable-background:new 0 0 500 500;" xml:space="preserve">
<g id="BACKGROUND">
	<g>
		<rect id="_x3C_Path_x3E__8_" style="fill:transparent;" width="500" height="500"/>
	</g>
</g>
<g id="OBJECTS">
	<ellipse style="opacity:0.5;fill:transparent;" cx="89" cy="417.823" rx="67.667" ry="12.5"/>
	<ellipse style="opacity:0.5;fill:transparent;" cx="259.5" cy="417.823" rx="67.667" ry="12.5"/>
	<ellipse style="opacity:0.5;fill:transparent;" cx="411" cy="418.323" rx="67.667" ry="12.5"/>
	<g>
		<g>
			<path style="fill:#FFC7A8;" d="M101.21,137.159c0,0-0.01,0-0.02,0.01c-7.47,8.03-25.4,6.57-29.65,1.32
				c0.48-0.16,0.93-0.35,1.33-0.58c4.18-2.33,4.67-8.24,4.23-13.18c-0.38-4.22-1.44-7.74-1.44-7.74s0.26,0.12,19.13,1.25
				c-0.57,2.87-0.89,5.28-1.01,7.32C93.14,136.119,97.81,136.499,101.21,137.159z"/>
			<path style="fill:#F7BA9C;" d="M101.19,137.169c-7.47,8.03-25.4,6.57-29.65,1.32c0.48-0.16,0.93-0.35,1.33-0.58
				C87.81,143.069,100.64,137.419,101.19,137.169z"/>
			<g>
				<path style="fill:#F7BA9C;" d="M69.952,110.671c-0.493,2.831,2.044,6.408,4.25,6.792c2.206,0.384,4.667-0.491,3.668-3.771
					c-0.837-2.749-0.858-5.139-2.979-5.858C72.946,107.175,70.445,107.84,69.952,110.671z"/>
				<path style="fill:#7D451B;" d="M101.454,97.123c0.627,0.264,0.896,0.851,1.127,1.45c0.518,1.346,0.51,2.777,0.455,4.196
					c-0.108,2.792-0.967,5.975-3.055,7.96c-0.181,0.172-0.375,0.332-0.583,0.472L87.08,97.315l5.121-4.582"/>
				<path style="fill:#F7BA9C;" d="M100.912,110.088c0.493,2.831-2.044,6.408-4.25,6.792c-2.206,0.384-4.667-0.491-3.668-3.771
					c0.837-2.749,0.896-5.437,3.103-5.821C98.303,106.903,100.419,107.257,100.912,110.088z"/>
				<path style="fill:#F7BA9C;" d="M75.66,116.989c0,0,1.06,3.52,1.44,7.74c2.18,3.6,5.23,5.84,8.61,5.84c3.11,0,5.94-1.9,8.07-5.01
					c0.12-2.04,0.44-4.45,1.01-7.32C75.92,117.109,75.66,116.989,75.66,116.989z"/>
				<path style="fill:#FFC7A8;" d="M74.206,110.072c0,10.631,5.373,19.25,12,19.25c6.627,0,12-8.619,12-19.25
					s-0.144-19.396-12-19.25C74.607,90.965,74.206,99.441,74.206,110.072z"/>
				<path style="fill:#382F2C;" d="M78.669,110.634c0.073,0.838,0.614,1.476,1.21,1.424s1.02-0.773,0.947-1.611
					c-0.073-0.838-0.614-1.476-1.209-1.424C79.02,109.075,78.596,109.796,78.669,110.634z"/>
				<path style="fill:#382F2C;" d="M93.836,110.426c-0.073,0.838-0.614,1.476-1.209,1.424c-0.595-0.052-1.02-0.773-0.947-1.611
					c0.073-0.838,0.614-1.476,1.209-1.424C93.484,108.867,93.909,109.588,93.836,110.426z"/>
				<path style="fill:none;stroke:#673719;stroke-linecap:round;stroke-miterlimit:10;" d="M82.638,106.708
					c0,0-4.773-1.387-7.599,0.633"/>
				<path style="fill:none;stroke:#673719;stroke-linecap:round;stroke-miterlimit:10;" d="M97.04,107.485
					c0,0-2.92-3.178-7.532-1.086"/>
				
					<path style="fill:none;stroke:#E2906D;stroke-width:0.653;stroke-linecap:round;stroke-linejoin:round;stroke-miterlimit:10;" d="
					M86.401,110.251c0,0,0.054,4.136,1.773,6.036c0,0-0.691,0.558-1.877,1.266"/>
				<path style="fill:#F4BDA2;" d="M81.752,115.961c-0.057,0.762-1.093,1.306-2.313,1.214c-1.22-0.092-2.163-0.784-2.105-1.546
					c0.057-0.762,1.093-1.306,2.313-1.214C80.866,114.507,81.809,115.199,81.752,115.961z"/>
				<path style="fill:#F4BDA2;" d="M91.125,115.955c0.055,0.731,1.048,1.253,2.218,1.165c1.17-0.088,2.074-0.752,2.019-1.483
					c-0.055-0.731-1.048-1.253-2.218-1.165C91.974,114.559,91.07,115.223,91.125,115.955z"/>
				<g style="opacity:0.5;">
					<path style="fill:#F4BDA2;" d="M98.94,93.847c-4.294-9.563-22.069-8.589-24.043-1.697c-5.222,0.287-8.256,9.811-0.298,16.853
						c-0.706-6.337,0.585-9.672,0.585-9.672s0.508,1.147,1.084,2.043c-0.123-0.866,0.912-3.143,1.757-2.782
						c0.646,0.276,1.725,1.8,1.347,1.946c0.826-0.311,2.427-1.261,2.949-2.043c0.779,1.642,1.996,3.088,5.107,3.123
						c-0.421-0.229-1.035-2.85-1.035-2.85c0.01,0.635,2.856,3.339,3.494,2.288c-0.716-0.875-1.43-1.749-1.363-2.495
						c0,0,2.514,3.122,5.296,2.976c0,0-1.982-2.189-1.5-3.368c-0.49,1.83,4.515,4.387,6.548,3.095
						c-1.263-0.282-2.509-1.71-2.329-2.503c1.215,1.715,6.031,1.772,7.328,0.323C102.455,98.918,100.838,98.074,98.94,93.847z"/>
				</g>
				<g>
					<g>
						<path style="fill:#7D451B;" d="M101.789,92.498c-4.815-10.721-24.741-9.63-26.955-1.902
							c-5.855,0.322-9.256,10.999-0.334,18.894c-0.792-7.104,0.656-10.844,0.656-10.844s0.569,1.286,1.215,2.29
							c-0.138-0.971,1.022-3.524,1.97-3.119c0.724,0.309,1.934,2.018,1.51,2.182c0.926-0.348,2.72-1.414,3.307-2.291
							c0.873,1.841,2.238,3.462,5.725,3.502c-0.471-0.257-1.16-3.195-1.16-3.195c0.011,0.712,3.202,3.743,3.917,2.565
							c-0.803-0.981-1.603-1.961-1.528-2.797c0,0,2.819,3.501,5.937,3.337c0,0-2.222-2.454-1.681-3.776
							c-0.549,2.052,5.062,4.919,7.341,3.469c-1.416-0.316-2.813-1.917-2.611-2.806c1.362,1.923,6.762,1.986,8.215,0.363
							C105.73,98.183,103.917,97.236,101.789,92.498z"/>
					</g>
					<g>
						<path style="fill:#7D451B;" d="M74.848,91.148c-1.128-1.83-2.749-3.347-4.76-3.858c-0.096-0.024-0.188,0.133-0.084,0.187
							c1.791,0.942,3.388,2.103,4.574,3.872C74.685,91.51,74.951,91.315,74.848,91.148L74.848,91.148z"/>
					</g>
					<g>
						<path style="fill:#7D451B;" d="M74.906,91.103c0.185-1.676-0.028-3.467-1.064-4.81c-0.109-0.141-0.309-0.016-0.234,0.15
							c0.671,1.496,1.175,2.973,1.029,4.666C74.622,91.29,74.887,91.278,74.906,91.103L74.906,91.103z"/>
					</g>
					<path style="fill:#703A12;" d="M84.602,86.844c2.834-0.664,5.732,0.163,8.313,1.439c1.322,0.653,2.619,1.433,3.835,2.29
						c0.89,0.628,1.713,1.402,1.915,2.572c0.004,0.022-0.028,0.032-0.032,0.009c-0.244-1.38-1.469-2.065-2.521-2.687
						c-1.181-0.698-2.378-1.359-3.622-1.923c-2.491-1.13-5.137-1.67-7.837-1.292C84.436,87.284,84.389,86.894,84.602,86.844z"/>
					<path style="fill:#703A12;" d="M84.354,88.973c2.865-0.135,5.539,0.788,7.892,2.521c0.051,0.037,0.005,0.125-0.049,0.089
						c-2.339-1.544-5.102-2.291-7.843-2.308C84.171,89.275,84.172,88.982,84.354,88.973z"/>
					<path style="fill:#703A12;" d="M81.686,90.85c2.081,0.469,3.994,1.322,5.81,2.501c0.036,0.024,0.004,0.083-0.033,0.061
						c-1.831-1.06-3.808-1.828-5.831-2.35C81.503,91.029,81.557,90.821,81.686,90.85z"/>
				</g>
			</g>
			<path style="fill:#FFFFFF;" d="M86.415,119.47c-1.347-0.027-2.581-0.193-3.558-0.447c-0.049,0.223-0.081,0.452-0.086,0.689
				c-0.04,2.009,1.621,3.672,3.71,3.714c2.09,0.042,3.816-1.552,3.857-3.562c0.005-0.261-0.021-0.516-0.071-0.763
				C89.24,119.358,87.893,119.5,86.415,119.47z"/>
		</g>
		<g>
			<g>
				<path style="fill:#F6F6FF;" d="M80.27,416.189c-0.21,0.51-0.56,0.94-0.92,1.34c-0.96,1.08-2.09,2.03-3.41,2.61
					c-0.17,0.07-0.33,0.14-0.5,0.2c-2.78,0.96-5.91,0.24-8.71-0.75c-0.71-0.25-1.45-0.53-1.98-1.07c-2.05-2.05-2.1-6.65-2.52-9.31
					c-0.59-3.78-1.19-7.56-1.78-11.34c-0.4-2.55-0.8-5.16-0.28-7.68c0.38-1.87,1.92-4.94,3.41-6.2c1.64-1.39,3.08-0.73,4.99-1.24
					c1.27-0.33,2.61,0.03,3.9,0.57c0.86,0.35,1.69,0.78,2.48,1.14c0.51,0.23,1.02,0.5,1.37,0.93c2.71,3.25,0.95,7.53,1.46,11.14
					c0.32,2.24,0.29,4.61,0.94,6.79c1.03,3.47,1.63,7.07,1.78,10.69C80.54,414.739,80.54,415.499,80.27,416.189z"/>
				<path style="opacity:0.25;fill:#E2E2F2;" d="M75.437,420.421c-0.311-0.069-0.907,0.165-1.235,0.205
					c-0.474,0.057-0.95,0.091-1.427,0.102c-0.954,0.021-1.911-0.05-2.851-0.211c-0.941-0.161-1.866-0.412-2.759-0.751
					c-0.782-0.297-1.82-0.641-2.415-1.247c-2.05-2.05-2.1-6.65-2.52-9.31c-0.59-3.78-1.19-7.56-1.78-11.34
					c-0.4-2.55-0.8-5.16-0.28-7.68c0.38-1.87,1.92-4.94,3.41-6.2c1.64-1.39,3.08-0.73,4.99-1.24c1.27-0.33,2.61,0.03,3.9,0.57
					l-8.532,5.295c-0.497,0.481-0.883,3.061-0.812,3.75c0.437,4.242,0.941,8.478,1.456,12.712c0.254,2.089,0.514,4.176,0.788,6.262
					c0.102,0.776,0.206,1.552,0.317,2.326c0.413,2.885,2.745,4.12,5.122,5.239C72.278,419.595,73.84,420.063,75.437,420.421z"/>
				<path style="fill:#E2E2F2;" d="M67.797,401.094c0,0,6.384-0.936,7.644,0.89c0.814,1.18-1.881-0.411-4.934,0.001
					C67.454,402.397,66.096,401.777,67.797,401.094z"/>
				<path style="fill:#E2E2F2;" d="M67.948,403.952c0,0,6.384-0.936,7.643,0.89c0.814,1.18-1.881-0.411-4.934,0.001
					C67.605,405.255,66.247,404.635,67.948,403.952z"/>
				<path style="fill:#E2E2F2;" d="M68.099,406.809c0,0,6.384-0.936,7.643,0.89c0.814,1.18-1.881-0.411-4.934,0.001
					C67.756,408.112,66.398,407.492,68.099,406.809z"/>
			</g>
			<g>
				<path style="fill:#FCB595;" d="M76.06,378.769c-0.11,1.52-0.14,2.93-0.14,4.18c-5.5,0.81-9.52-0.35-11.96-1.49
					c0.02-0.6,0.02-1.23,0.03-1.9L76.06,378.769z"/>
				<path style="fill-rule:evenodd;clip-rule:evenodd;fill:#FFC3A4;" d="M75.92,382.949c0.02,3.45,0.34,5.74,0.31,5.9
					c-0.13,0.78-4.53,2.96-11.49,1.27c0,0-0.98-0.31-0.85-2.78c0.02-0.42,0.04-2.59,0.07-5.88
					C66.4,382.599,70.42,383.759,75.92,382.949z"/>
			</g>
			<path style="fill-rule:evenodd;clip-rule:evenodd;fill:#F6F6FF;" d="M75.696,391.826c-0.164-0.81,0.257-1.654,0.088-2.463
				c-0.226-1.085-1.376-1.672-2.395-2.108c-1.003-0.428-2.072-0.866-3.149-0.7c-0.431,0.066-0.841,0.228-1.246,0.39
				c-0.924,0.37-1.884,0.777-2.516,1.546c-0.885,1.075-0.928,2.591-0.93,3.983"/>
		</g>
		<g>
			<g>
				<path style="fill:#FFC7A8;" d="M162.696,144.458c-0.186-1.238,1.401-4.218,2.218-6.271c-4.112-2.513-12.146-6.218-12.146-6.218
					s2.966,9.127,2.084,11.111C154.223,144.497,162.882,145.696,162.696,144.458z"/>
				<g>
					<g>
						<g>
							<path style="fill:#FFC7A8;" d="M162.908,140.376c-1.494,0.696-7.352-0.112-9.017-5.25c-1.542-4.76-2.785-5.585-3.439-9.195
								c-0.566-3.126,1.306-1.125,3.029,0.786c1.722,1.911,1.944,3.079,3.245,1.179c1.301-1.9,3.073-11.462,4.844-13.3
								c1.771-1.839-0.463,10.322-0.463,10.322s3.575-9.906,5.038-10.012c1.752-0.127-1.465,10.671-1.465,10.671
								s4.24-7.977,4.887-7.727c1.256,0.485-1.716,9.094-1.716,9.094s3.199-5.341,3.86-4.437
								C172.371,123.41,168.627,135.126,162.908,140.376z"/>
						</g>
					</g>
				</g>
			</g>
			<path style="fill:#F2B699;" d="M167.004,129.58c-0.007-0.011-0.016-0.022-0.025-0.033c-0.151-0.182-3.763-4.432-8.686-3.183
				c-0.183,0.046-0.294,0.233-0.248,0.416c0.047,0.183,0.233,0.294,0.416,0.248c4.5-1.141,7.959,2.917,7.993,2.958
				c0.121,0.145,0.337,0.164,0.482,0.043C167.07,129.916,167.097,129.723,167.004,129.58z"/>
			<path style="fill:#FFC7A8;" d="M163.23,141.739l-6.89,34.53c-0.97,4.85-3.44,9.32-7.2,12.55c-0.4,0.34-0.79,0.65-1.16,0.92
				c-2.65-0.05-5.94-0.93-8.93-1.98c-3.05-1.07-5.79-2.31-7.24-2.99c-0.69-0.33-1.08-0.53-1.08-0.53l1.49-3.07l4.55-9.37l2.58-5.31
				l5.25,3.88l10.21-27.21L163.23,141.739z"/>
		</g>
		<path style="fill-rule:evenodd;clip-rule:evenodd;fill:#FFC3A4;" d="M76.06,378.769l-12.07,0.79c0.03-1.85,0.05-3.95,0.09-6.22
			l12.38,1.57C76.27,376.249,76.14,377.549,76.06,378.769z"/>
		<path style="fill:#FFC7A8;" d="M95.665,135.489"/>
		<g>
			<g>
				<path style="fill-rule:evenodd;clip-rule:evenodd;fill:#FFC3A4;" d="M106.23,385.369c-0.02,0.13-0.04,0.26-0.05,0.38
					c-0.19,1.33-0.33,2.61-0.44,3.81c-0.52,5.49-0.39,9.4-0.42,9.62c-0.13,0.78-4.54,2.96-11.5,1.27c0,0-0.97-0.31-0.84-2.77
					c0.02-0.55,0.05-4.15,0.11-9.32v-0.08c0.02-1.42,0.04-2.97,0.07-4.6l8.35,1.08l3.44,0.44L106.23,385.369z"/>
				<path style="fill:#FCB595;" d="M106.18,385.749c-0.19,1.33-0.33,2.61-0.44,3.81c-6.33,1.48-11.87-0.85-12.65-1.2
					c-0.06-0.02-0.09-0.04-0.09-0.04l0.09-0.04l8.42-3.52l3.44,0.44l1.22,0.54C106.17,385.739,106.17,385.739,106.18,385.749z"/>
			</g>
			<g>
				<path style="fill:#F6F6FF;" d="M123.12,418.869c-2.17,2.4-8.96,4.4-16.14,0.55c-7.12-3.81-15.77-8.75-16.95-10.35
					c-1.05-1.41,1.43-6.22,2.02-7.99c0.08-0.24,0.13-0.42,0.13-0.54c-0.01-0.97,0.25-2.07,1.42-2.08c0,0,6.59,2.59,12.82,0.88
					c0,0,0.19-0.14,0.93,0.44c1.72,1.36,4.47,7.58,7.44,9.2c2.96,1.62,8.29,5.21,9,8.02
					C123.94,417.589,123.69,418.239,123.12,418.869z"/>
				<path style="fill:#E2E2F2;" d="M104.702,407.504c0,0,4.129-3.728,5.907-3.022c1.149,0.456-1.545,0.606-3.537,2.364
					C105.08,408.603,103.809,408.809,104.702,407.504z"/>
				<path style="fill:#E2E2F2;" d="M106.179,409.481c0,0,4.129-3.728,5.906-3.022c1.149,0.456-1.545,0.606-3.537,2.363
					C106.556,410.58,105.286,410.786,106.179,409.481z"/>
				<path style="fill:#E2E2F2;" d="M107.655,411.457c0,0,4.129-3.728,5.907-3.022c1.149,0.456-1.545,0.606-3.537,2.363
					C108.033,412.556,106.762,412.762,107.655,411.457z"/>
				<path style="fill-rule:evenodd;clip-rule:evenodd;fill:#F6F6FF;" d="M107.259,400.514c-0.164-0.81,0.257-1.654,0.088-2.463
					c-0.226-1.085-1.376-1.672-2.395-2.108c-1.003-0.428-2.072-0.866-3.149-0.7c-0.431,0.066-0.841,0.228-1.246,0.39
					c-0.924,0.37-1.174,0.671-1.806,1.44c-0.885,1.075-0.498,2.691-0.5,4.083"/>
				<path style="opacity:0.25;fill:#E2E2F2;" d="M123.12,418.869c-2.17,2.4-8.96,4.4-16.14,0.55c-7.12-3.81-15.77-8.75-16.95-10.35
					c-1.05-1.41,1.43-6.22,2.02-7.99C91.167,408.739,112.292,423.698,123.12,418.869z"/>
			</g>
		</g>
		<g>
			<path style="fill-rule:evenodd;clip-rule:evenodd;fill:#967D63;" d="M115.86,298.899c0,0.21,0,0.41-0.01,0.61
				c-0.09,7.32-0.27,14.63-0.31,21.95v1.03c0,3.94-2.4,23.23-3.06,27.31c-0.41,2.56-3.08,21.03-5.03,34.64
				c-0.6,4.11-4.05,3.29-7.66,3.17c-3.49-0.11-7.16,0.6-7.1-2.87c0.32-18.91,0.84-52.32,0.93-54.78c0.13-3.37-7.36-66.13-8.14-67.25
				c-0.72-1.02-6.78,90.58-7.77,115.28c0,0.11-0.01,0.22-0.01,0.33H62.13c0-0.02,0-0.05-0.01-0.08c-0.05-0.51-0.1-1.03-0.16-1.57
				c-0.01-0.1-0.02-0.2-0.03-0.31c-0.04-0.43-0.09-0.88-0.13-1.34c-0.02-0.14-0.03-0.28-0.05-0.43c-0.05-0.53-0.11-1.08-0.16-1.63
				c-0.02-0.18-0.04-0.36-0.06-0.54c-0.04-0.4-0.08-0.81-0.12-1.22c-0.01-0.15-0.03-0.3-0.04-0.45c-0.06-0.61-0.13-1.23-0.19-1.86
				c0-0.04-0.01-0.08-0.01-0.12c-0.05-0.49-0.1-0.99-0.15-1.5c-0.03-0.28-0.06-0.57-0.09-0.86c-0.04-0.46-0.09-0.93-0.13-1.39
				c-0.03-0.21-0.05-0.41-0.07-0.62c-0.05-0.55-0.11-1.11-0.16-1.68c-0.02-0.13-0.03-0.26-0.04-0.39c-0.05-0.51-0.1-1.02-0.15-1.54
				c-0.03-0.31-0.07-0.63-0.1-0.94c-0.04-0.45-0.09-0.9-0.13-1.35c-0.02-0.16-0.03-0.32-0.05-0.47c-0.05-0.59-0.11-1.18-0.17-1.77
				c-0.02-0.23-0.04-0.45-0.07-0.67c-0.04-0.45-0.08-0.9-0.13-1.35c-0.02-0.24-0.05-0.48-0.07-0.72c-0.04-0.43-0.08-0.86-0.12-1.29
				c-0.05-0.49-0.1-0.99-0.15-1.48c-0.03-0.31-0.06-0.61-0.09-0.92c-0.02-0.19-0.04-0.39-0.06-0.58c-0.05-0.56-0.1-1.12-0.16-1.67
				c-0.01-0.09-0.02-0.18-0.02-0.27c-0.06-0.55-0.11-1.09-0.16-1.63c-0.03-0.26-0.05-0.53-0.08-0.8c-0.05-0.49-0.09-0.98-0.14-1.47
				c-0.01-0.07-0.01-0.14-0.02-0.21c-0.06-0.62-0.12-1.23-0.18-1.83c-0.01-0.1-0.02-0.19-0.03-0.29c-0.04-0.45-0.08-0.88-0.12-1.32
				c-0.02-0.21-0.04-0.42-0.06-0.62c-0.05-0.5-0.1-0.98-0.14-1.46c-0.02-0.16-0.03-0.32-0.05-0.47c-0.03-0.39-0.07-0.77-0.1-1.15
				c-0.02-0.18-0.04-0.37-0.06-0.56c-0.04-0.44-0.08-0.88-0.12-1.31c-0.01-0.14-0.03-0.27-0.04-0.41c-0.03-0.36-0.07-0.72-0.1-1.07
				c-0.01-0.14-0.03-0.28-0.04-0.42c-0.04-0.42-0.08-0.84-0.11-1.24c-0.01-0.08-0.02-0.16-0.03-0.24c-0.03-0.34-0.06-0.68-0.09-1
				c-0.01-0.11-0.02-0.21-0.03-0.32c-0.03-0.37-0.06-0.72-0.09-1.06c-0.01-0.08-0.02-0.15-0.02-0.23c-0.03-0.26-0.05-0.51-0.07-0.75
				c-0.01-0.1-0.02-0.2-0.03-0.3c-0.02-0.3-0.05-0.58-0.07-0.84c0-0.03-0.01-0.05-0.01-0.08c-0.02-0.24-0.04-0.45-0.05-0.66
				c-0.01-0.06-0.01-0.12-0.02-0.17c-0.01-0.22-0.03-0.42-0.04-0.59c-0.01-0.01-0.01-0.02-0.01-0.04c-0.01-0.15-0.02-0.29-0.03-0.41
				v-0.09c-0.01-0.12-0.02-0.22-0.02-0.29c-0.01-0.27-0.04-0.95-0.08-1.96v-0.09c-0.02-0.48-0.04-1.05-0.06-1.68
				c-0.01-0.01-0.01-0.03-0.01-0.04c-0.01-0.31-0.02-0.63-0.03-0.97c-0.01-0.11-0.01-0.23-0.02-0.34c-0.01-0.27-0.02-0.55-0.03-0.84
				v-0.13c-0.01-0.32-0.03-0.64-0.04-0.97c0-0.14-0.01-0.28-0.01-0.42c-0.03-0.79-0.06-1.62-0.1-2.5c0-0.13-0.01-0.26-0.01-0.4
				c-0.05-1.44-0.11-3-0.17-4.66v-0.21c-0.02-0.48-0.04-0.97-0.05-1.46c-0.01-0.11-0.01-0.22-0.02-0.33
				c-0.02-0.57-0.03-1.15-0.05-1.74c-0.05-1.21-0.09-2.45-0.13-3.72c0-0.11,0-0.22-0.01-0.33c-0.04-1.26-0.08-2.54-0.12-3.85
				c0-0.1-0.01-0.2-0.01-0.29c-0.02-0.61-0.04-1.21-0.06-1.82v-0.16c-0.02-0.65-0.04-1.29-0.06-1.95v-0.16
				c-0.04-1.36-0.08-2.74-0.12-4.13c0-0.13-0.01-0.27-0.01-0.4c-0.02-0.59-0.03-1.18-0.05-1.78c0-0.08-0.01-0.17-0.01-0.26
				c-0.03-1.4-0.07-2.79-0.11-4.19v-0.38c-0.02-0.6-0.03-1.19-0.05-1.79v-0.29c-0.04-1.39-0.07-2.78-0.1-4.16v-0.35
				c-0.01-0.56-0.03-1.12-0.04-1.67v-0.45c-0.02-0.63-0.03-1.26-0.04-1.88v-0.08c-1.52-16.97-2.52-25.45-1.42-36.91
				c0.24-2.46,1.12-6.17,2.15-9.84c0.59-2.1,1.23-4.19,1.81-6.03c0.48-1.53,0.93-2.88,1.29-3.92c0.37-1.1,0.65-1.84,0.75-2.08
				c2.74,0,54.78-0.75,54.78-0.75c0.09,2.24,0.18,4.48,0.26,6.72v0.09c0.26,6.52,0.47,13.04,0.66,19.57
				C116.14,258.189,116.12,278.619,115.86,298.899z"/>
			<path style="fill:none;stroke:#B2967D;stroke-miterlimit:10;" d="M64.79,375.239c0,0-3.5-41.75-4-56.5s-3.25-76.75-1.5-88
				s1.667-9.917,1.667-9.917"/>
			<path style="fill:#7C6550;" d="M91.271,384.108c0,0,0,3.091,1.236,4.121c1.236,1.03,15.213,1.149,16.14,0.222
				c0.651-0.651,0.796-3.136,0.824-4.558c0.011-0.561-0.432-1.017-0.993-1.019c-4.009-0.017-16.158-0.296-16.692-0.207
				C91.168,382.769,91.271,384.108,91.271,384.108z"/>
			<path style="fill:#7C6550;" d="M60.688,376.692c0,0,0,3.091,1.236,4.121c1.236,1.03,15.213,1.149,16.14,0.221
				c0.651-0.651,0.796-3.136,0.824-4.558c0.011-0.561-0.432-1.017-0.993-1.019c-4.009-0.017-16.158-0.296-16.692-0.207
				C60.585,375.353,60.688,376.692,60.688,376.692z"/>
			<path style="opacity:0.25;fill:#967D63;" d="M114.92,218.339c-11.49,5.57-46.242,5.29-59.232,5.4
				c0.6-6.28,0.533-4.905,1.063-6.125C59.5,217.614,114.84,216.099,114.92,218.339z"/>
			<path style="fill:none;stroke:#77604A;stroke-miterlimit:10;" d="M72.087,223.223c-0.044,2.462-2.315,6.766-3.994,8.566
				c-1.679,1.801-5.781,4.26-8.03,5.262"/>
			<path style="fill:none;stroke:#77604A;stroke-miterlimit:10;" d="M108.19,223.682c0.487,3.219,1.879,6.297,3.975,8.789"/>
			<path style="fill-rule:evenodd;clip-rule:evenodd;fill:none;stroke:#B2967D;stroke-miterlimit:10;" d="M95.04,382.739
				c0,0,3-51.75,3-54.75s-10.5-73.75-10.5-73.75"/>
			<path style="fill:none;stroke:#77604A;stroke-miterlimit:10;" d="M85.331,262.656c0,0,0-3.125,1.25-6.25s3.125-8.625,3.125-8.625
				"/>
			<path style="fill:none;stroke:#77604A;stroke-linecap:round;stroke-linejoin:round;stroke-miterlimit:10;" d="M93.764,226.615
				c-0.245,4.501-0.49,9.003-0.735,13.504c-0.077,1.418-0.16,2.868-0.568,4.172c-0.618,1.976-1.563,2.435-2.79,3.735
				c0.338-6.861,0.676-13.721,1.014-20.582"/>
		</g>
		<path style="fill:#FFC7A8;" d="M93.206,134.989"/>
		<path style="fill:none;stroke:#FC6A5A;stroke-miterlimit:10;" d="M145.04,171.322"/>
		<path style="fill:#EFAF8F;" d="M144.33,170.319c0,0-2.81,12.19-5.28,17.44c-3.05-1.07-5.79-2.31-7.24-2.99
			c-0.09-0.18-0.14-0.28-0.14-0.28l0.55-3.32l1.45-8.76l3.1-0.61L144.33,170.319z"/>
		<g>
			<path style="fill:#2B2B2B;" d="M146.35,165.799c0,0-8.64,21.19-11.48,23.36c-3.16,0.16-14.83-8.84-14.83-8.84l-1,30.67
				c0,0,0.17,2.33-3.67,7.33c-0.14,0.04-0.29,0.07-0.45,0.11c-6.98,1.44-39.82,0.52-52.94,0.08c-1.78-0.06-3.2-0.11-4.14-0.14
				c-0.84-0.03-1.3-0.05-1.3-0.05l-0.33-8.1l-0.5-12.4c0,0-2.85,0.12-7.72-0.46c-0.31-0.04-0.62-0.08-0.95-0.12v0.04
				c0,0-1.4-0.12-3.84-0.63c-1.88-0.34-6.21-1.56-6.24-1.68c-1.49-0.47-3.03-1.05-4.69-1.74c-1.02-0.43-2.09-0.9-3.23-1.41
				c-1.56-13.99,24.06-46.3,24.06-46.3l-0.01,0.11c0.05-0.09,0.07-0.14,0.07-0.14s11.88-5.5,18.38-7
				c15.5,6.67,29.67-1.33,29.67-1.33C125.29,141.989,146.35,165.799,146.35,165.799z"/>
			
				<line style="opacity:0.1;fill:none;stroke:#2C3559;stroke-miterlimit:10;" x1="119.915" y1="179.864" x2="120.165" y2="147.489"/>
			<line style="opacity:0.1;fill:none;stroke:#2C3559;stroke-miterlimit:10;" x1="55.54" y1="196.989" x2="55.706" y2="152.822"/>
		</g>
		<g>
			<path style="opacity:0.25;fill:#967D63;" d="M71.813,224.989c-0.13,2-13.583,1.44-13.583,1.44l-2.2-2.03
				c0.59-2.1,1.23-4.19,1.81-6.03c-0.84-0.03-1.3-0.05-1.3-0.05l-0.33-8.1c1.01,1.47,2.01,2.91,2.92,4.23
				c1.11,1.6,2.1,3.01,2.85,4.06c0.49,0.69,0.88,1.22,1.12,1.54C66.73,220.549,70.083,222.427,71.813,224.989z"/>
			<path style="fill:#FFC7A8;" d="M33.333,184.656c0,0-4.375,11.958-4.75,13.333s1.125,4.5,1.125,4.5l26.331,24.375
				c0,0,5.25,7.125,7.625,8.625c2.5-1.375,8-8.5,8.125-10.5c-2.75-2-7.25-4-10.875-4.5c-2.125-2.75-15.29-22.125-15.29-22.125
				l1.415-4.625L37,180.822L33.333,184.656z"/>
			<path style="fill:#EFAF8F;" d="M46.792,194.362l-1.24,4.06c-0.31-0.04-0.62-0.08-0.95-0.12v0.04c0,0-1.4-0.12-3.84-0.63
				c-1.88-0.34-6.21-1.56-6.24-1.68c-1.49-0.47-3.03-1.05-4.69-1.74c1.39-3.92,3.25-9.01,3.25-9.01l3.67-3.83"/>
			<path style="fill:#2B2B2B;" d="M55.706,197.822c0,0-3.218,0.14-8.662-0.579l-0.004,0.038c0,0-1.401-0.121-3.836-0.635
				c-1.887-0.338-6.215-1.558-6.244-1.671c-2.406-0.768-6.215-2.392-9.21-3.735c5.375-26.75,25.352-45.719,25.352-45.719
				l-0.012,0.105c0.046-0.084,0.075-0.136,0.075-0.136"/>
		</g>
		<path style="fill:none;stroke:#B7B7B7;stroke-width:0.5;stroke-miterlimit:10;" d="M31.188,184.614c0,0,9.188,6.688,22.813,5.688"
			/>
		<path style="fill:none;stroke:#B7B7B7;stroke-width:0.5;stroke-miterlimit:10;" d="M140.667,163.406c0,0-5.583,17-10.417,20.833"
			/>
		<polyline style="fill:none;stroke:#B7B7B7;stroke-width:0.5;stroke-miterlimit:10;" points="28.938,190.364 35.625,188.802 
			38.875,194.239 44.938,191.427 49.5,196.427 55.125,191.927 		"/>
		<polyline style="fill:none;stroke:#B7B7B7;stroke-width:0.5;stroke-miterlimit:10;" points="134.438,187.864 133.938,182.427 
			138.375,181.239 137.063,176.177 141.438,174.114 139.813,168.427 145,166.114 		"/>
		<path style="fill:none;stroke:#B7B7B7;stroke-width:0.5;stroke-miterlimit:10;" d="M70.5,140.239c0,0,15.5,9.25,31.125-1.5"/>
	</g>
	<g>
		<g>
			<path style="fill:#EAA07F;" d="M431.728,392.45c0,0-0.464,6.694,0,10.04c0.239,1.723-9.198,1.562-11.567,0
				c0.103-5.634-0.206-15.005-0.206-15.005"/>
			<g>
				<g>
					<path style="fill:#2B2B2B;" d="M435.84,411.639c-1.17,1.61-9.77,6.63-16.86,10.51c-9.02,4.95-17.51,0.55-16.83-2.26
						c0.1-0.42,0.31-0.85,0.6-1.3c1.61-2.56,5.82-5.4,8.33-6.81c2.95-1.64,5.65-7.89,7.35-9.26c0.74-0.6,0.92-0.45,0.92-0.45
						c3.35,0.88,6.79,0.53,9.26,0.01c2.14-0.44,3.56-1.01,3.56-1.01c1.16,0,1.44,1.1,1.44,2.06
						C433.61,404.089,437.01,410.029,435.84,411.639z"/>
					<path style="fill:#E2E2F2;" d="M420.111,410.235c0,0-4.129-3.728-5.906-3.022c-1.149,0.456,1.545,0.606,3.537,2.364
						C419.733,411.333,421.004,411.54,420.111,410.235z"/>
					<path style="fill:#E2E2F2;" d="M418.634,412.211c0,0-4.129-3.728-5.907-3.022c-1.149,0.456,1.545,0.606,3.537,2.363
						C418.257,413.31,419.527,413.516,418.634,412.211z"/>
					<path style="fill:#E2E2F2;" d="M417.158,414.188c0,0-4.129-3.728-5.906-3.022c-1.149,0.456,1.545,0.606,3.537,2.364
						C416.78,415.286,418.051,415.492,417.158,414.188z"/>
				</g>
				<path style="fill:#191919;" d="M435.84,411.639c-1.17,1.61-9.77,6.63-16.86,10.51c-9.02,4.95-17.51,0.55-16.83-2.26
					c0.1-0.42,0.31-0.85,0.6-1.3c14.12,5.27,22.21-7.87,25.86-16.51c2.14-0.44,3.56-1.01,3.56-1.01c1.16,0,1.44,1.1,1.44,2.06
					C433.61,404.089,437.01,410.029,435.84,411.639z"/>
			</g>
		</g>
		<g>
			<path style="fill:#EAA07F;" d="M404.75,383.566c0,0,1.063,8.835,1.467,12.856c-1.236,1.224-9.185,2.25-11.554,0.537
				c-0.268-6.115-1.477-13.876-1.477-13.876"/>
			<g>
				<path style="fill:#2B2B2B;" d="M410.23,406.039c-1.17,1.61-9.77,6.63-16.86,10.51c-9.01,4.94-17.51,0.55-16.82-2.27
					c0.04-0.18,0.11-0.37,0.19-0.56c1.17-2.71,5.97-6,8.73-7.54c2.96-1.65,5.65-7.89,7.35-9.27c0.74-0.59,0.92-0.44,0.92-0.44
					c4.46,1.17,9.08,0.16,11.37-0.52c0.91-0.27,1.45-0.49,1.45-0.49c1.17,0,1.44,1.1,1.44,2.06
					C408,398.489,411.4,404.429,410.23,406.039z"/>
				<path style="fill:#E2E2F2;" d="M394.504,404.629c0,0-4.129-3.728-5.907-3.022c-1.149,0.456,1.545,0.606,3.537,2.364
					C394.127,405.728,395.397,405.934,394.504,404.629z"/>
				<path style="fill:#E2E2F2;" d="M393.028,406.606c0,0-4.129-3.728-5.906-3.022c-1.149,0.456,1.545,0.606,3.537,2.363
					C392.65,407.705,393.921,407.911,393.028,406.606z"/>
				<path style="fill:#E2E2F2;" d="M391.551,408.582c0,0-4.129-3.728-5.907-3.022c-1.149,0.456,1.545,0.606,3.537,2.363
					C391.173,409.681,392.444,409.887,391.551,408.582z"/>
				<path style="fill:#191919;" d="M410.23,406.039c-1.17,1.61-9.77,6.63-16.86,10.51c-9.01,4.94-17.51,0.55-16.82-2.27
					c0.04-0.18,0.11-0.37,0.19-0.56c7.46-0.04,25.03-1.87,28.37-17.77c0.91-0.27,1.45-0.49,1.45-0.49c1.17,0,1.44,1.1,1.44,2.06
					C408,398.489,411.4,404.429,410.23,406.039z"/>
			</g>
		</g>
		<g>
			<g>
				<path style="fill:#EAA07F;" d="M357.17,157.719l-6.84,5.01c0,0-1.46-4.81-1.91-6.66c-0.06-0.23-0.1-0.4-0.12-0.53
					c-0.08-0.45-0.44-1.07-0.94-1.75c-0.77-1.08-1.88-2.32-2.7-3.3c2.94-3.48,9.04-9.21,9.04-9.21s0.01,0.12,0.03,0.34v0.03
					c0.12,1.04,0.43,4.13,0.79,6.92c0.26,2.09,0.54,4.02,0.76,4.77c0.27,0.93,0.7,1.95,1.09,2.77
					C356.8,157.039,357.17,157.719,357.17,157.719z"/>
				<g>
					<g>
						<g>
							<path style="fill:#EAA07F;" d="M347.111,151.851c1.548,0.179,6.563-2.294,6.523-7.4c-0.036-4.73,0.832-5.842,0.342-9.276
								c-0.425-2.974-1.508-0.62-2.483,1.609c-0.975,2.228-0.825,3.343-2.559,2.026c-1.734-1.316-6.177-9.366-8.314-10.487
								c-2.138-1.121,3.496,9.122,3.496,9.122s-6.163-7.82-7.507-7.479c-1.609,0.409,4.498,9.136,4.498,9.136
								s-6.184-5.891-6.69-5.474c-0.983,0.81,4.253,7.647,4.253,7.647s-4.463-3.837-4.787-2.829
								C333.56,139.454,340.414,148.848,347.111,151.851z"/>
						</g>
					</g>
				</g>
			</g>
			<path style="fill:#DB8D6E;" d="M340.216,143.388c0.003-0.012,0.007-0.025,0.012-0.037c0.082-0.208,2.054-5.099,6.843-5.447
				c0.178-0.013,0.333,0.121,0.346,0.299c0.012,0.178-0.121,0.333-0.299,0.346c-4.378,0.319-6.27,4.992-6.288,5.039
				c-0.065,0.166-0.253,0.248-0.419,0.182C340.257,143.709,340.175,143.544,340.216,143.388z"/>
			<path style="fill:#DD8B6B;" d="M347.65,154.201c-0.09-0.134-0.187-0.272-0.29-0.412c1.12-1.5,3.56-4.22,7.16-5.22
				c0.064,0.517,0.13,1.024,0.195,1.505"/>
		</g>
		<g>
			<g>
				<path style="fill:#EAA07F;" d="M468.79,246.879c-0.14,1.51-0.4,9.4-3.74,9.91c-0.02,0.01-0.03,0.01-0.05,0.01
					c-0.05,0.07-0.13,0.18-0.25,0.31l-0.08,0.08c-0.47,0.49-1.37,1.15-2.32,0.7c-0.03-0.02-0.06-0.03-0.09-0.05
					c-0.05,0.03-0.1,0.06-0.15,0.1c-0.79,0.53-1.38,0.84-2.06,0.09c-0.03-0.03-0.07-0.07-0.1-0.11c-0.03,0.05-0.07,0.09-0.12,0.13
					c-0.25,0.24-0.58,0.35-0.89,0.33c-0.18,0-0.35-0.05-0.51-0.12c-0.16-0.08-0.31-0.2-0.41-0.36c-0.1-0.15-0.16-0.32-0.17-0.53
					c-0.01-0.52-0.15-1.45-0.29-2.34c-0.15-0.89-0.3-1.74-0.33-2.1c-2.08-0.73-3.27-2.81-3.69-3.95c-0.29-0.83-0.12-3.39,0.44-5.53
					c0.32-1.23,0.57-2.49,0.69-3.76c0.04-0.42,0.07-0.84,0.08-1.26c0.01-0.48,0.05-0.8,0.08-1c-0.18-0.58-0.41-1.34-0.68-2.23
					l9.35-4.26c0.71,3.49,1.16,6.01,1.23,6.39c0.03,0.05,0.07,0.09,0.1,0.14c0.17,0.24,0.32,0.5,0.44,0.81c0,0,0.22,0.42,0.55,1.08
					c0.02,0.04,0.04,0.09,0.07,0.14C466.92,241.589,468.9,245.749,468.79,246.879z"/>
				<g style="opacity:0.3;">
					<path style="fill:#272425;" d="M460.447,252.601c-0.002-0.254-0.038-0.612-0.095-1.038c-0.024-0.173-0.052-0.358-0.083-0.551
						c-0.145-0.904-0.359-1.999-0.575-3.03c0.068-0.018,0.136-0.036,0.204-0.052c0.218,1.045,0.436,2.157,0.582,3.077
						c0.028,0.18,0.054,0.353,0.076,0.515c0.062,0.44,0.097,0.812,0.099,1.077c0.01,1.415-0.122,3.749-0.608,5.431
						c-0.031-0.033-0.064-0.071-0.096-0.111c-0.036,0.046-0.075,0.089-0.119,0.129C460.325,256.39,460.46,254.026,460.447,252.601z"
						/>
					<path style="fill:#272425;" d="M463.245,252.326c0.026-0.348,0.002-0.898-0.049-1.554c-0.007-0.095-0.015-0.188-0.024-0.287
						c-0.075-0.861-0.192-1.865-0.313-2.816c0.07,0.002,0.14,0.006,0.21,0.009c0.117,0.92,0.229,1.888,0.302,2.731
						c0.009,0.1,0.017,0.197,0.025,0.293c0.055,0.689,0.08,1.269,0.054,1.64c-0.101,1.464-0.441,3.896-1.097,5.544
						c-0.033-0.017-0.064-0.032-0.098-0.051c-0.048,0.034-0.097,0.067-0.143,0.099C462.791,256.324,463.138,253.818,463.245,252.326
						z"/>
					<path style="fill:#272425;" d="M465.993,252.329c0.125-0.78,0.1-2.606,0.037-4.34c0.07,0.01,0.14,0.019,0.21,0.029
						c0.062,1.729,0.086,3.547-0.043,4.345c-0.186,1.168-0.579,2.95-1.146,4.429l-0.3,0.314l-0.078,0.083
						C465.331,255.661,465.788,253.617,465.993,252.329z"/>
					<path style="fill:#DDA68A;" d="M457.23,252.93c0,0-0.447-6.192-0.911-5.66c-0.465,0.532-0.839,1.8-0.72,2.077
						C455.718,249.624,456.224,251.702,457.23,252.93z"/>
				</g>
			</g>
			<path style="fill:#D38A6E;" d="M464.83,237.469c-4.6,2.11-7.93,2.44-10.16,2.22c0.04-0.42,0.07-0.84,0.08-1.26
				c0.01-0.48,0.05-0.8,0.08-1c-0.18-0.58-0.41-1.34-0.68-2.23l9.35-4.26c0.71,3.49,1.16,6.01,1.23,6.39
				C464.76,237.379,464.8,237.419,464.83,237.469z"/>
		</g>
		<g>
			<path style="fill:#2B2B2B;" d="M442.63,232.719c-0.8-2.94-1.51-4.81-1.51-4.81l-57.69-2.67c-0.23,1-0.46,2.01-0.68,3.05
				c-5.31,25.31-5.36,60.51-5.17,76.84l0.97,15.34c0,0.01,0.01,0.03,0.01,0.04c2.9,18.64,11.99,64.91,11.99,64.91
				c4.4,0.7,18.62,0.37,18.62,0.37s-0.18-1.24-0.49-3.4c-0.003-0.021-0.007-0.046-0.01-0.067
				c-1.793-12.696-3.311-57.102-7.211-66.178c5.418-22.571,6.651-50.602,6.651-50.602l-0.882-5.532
				c0.001-0.006,0.542,1.604,0.542,1.604s2.659,36.615,3.669,46.425c0.06,0.63,0.12,1.13,0.17,1.51c0.22,1.69,0.74,8.12,1.38,16.65
				c1.76,23.38,4.44,62.49,4.44,62.49c5.08,1.66,14.85,0.48,14.85,0.48c1.93-9.35,5.52-61.62,1.87-77.93
				c2.58-16.86,6.98-35.45,10.5-57.91C445.77,246.129,444.05,237.819,442.63,232.719z"/>
			<path style="fill:#353535;" d="M434.143,388.233c0,0,0,3.091-1.236,4.121c-1.236,1.03-15.213,1.149-16.14,0.222
				c-0.651-0.651-0.796-3.136-0.824-4.558c-0.011-0.561,0.432-1.017,0.993-1.019c4.009-0.017,16.158-0.296,16.692-0.207
				C434.246,386.894,434.143,388.233,434.143,388.233z"/>
			<path style="fill:#353535;" d="M409.972,381.859c0,0,0.385,3.067-0.713,4.243c-1.098,1.176-17.568,3.141-18.603,2.337
				c-0.727-0.565-1.18-3.012-1.386-4.42c-0.081-0.555,0.302-1.063,0.858-1.135c3.976-0.517,18.612-2.413,19.153-2.391
				C409.908,380.517,409.972,381.859,409.972,381.859z"/>
			<path style="fill:#353535;" d="M386.96,314.619c0,4.37-3,8.04-7.09,9.15c-0.47-1.13-0.91-2.22-1.31-3.26
				c0-0.01-0.01-0.03-0.01-0.04l-0.97-15.34C382.79,305.269,386.96,309.459,386.96,314.619z"/>
			<path style="fill:#353535;" d="M423.667,317.349c0,4.04-4.049,7.48-9.775,8.85c-1.012-8.53-1.835-14.96-2.183-16.65
				c-0.079-0.38-0.174-0.88-0.269-1.51C418.415,308.919,423.667,312.749,423.667,317.349z"/>
			<path style="fill:#262626;" d="M442.63,232.719c-38.3,4.51-53.77-0.48-59.88-4.43c0.22-1.04,0.45-2.05,0.68-3.05l57.69,2.67
				C441.12,227.909,441.83,229.779,442.63,232.719z"/>
			<path style="fill:none;stroke:#1C1D1E;stroke-miterlimit:10;" d="M425.541,237.177c1.039,2.233,4.861,5.245,7.126,6.209
				c2.266,0.964,4.764,1.268,7.226,1.272"/>
			<path style="fill:none;stroke:#1C1D1E;stroke-miterlimit:10;" d="M386.725,234.057c-0.487,3.219-1.879,6.297-3.975,8.789"/>
			<path style="fill:none;stroke:#1C1D1E;stroke-miterlimit:10;" d="M408.208,266.323c0,0,0-3.125-1.25-6.25
				s-3.125-8.625-3.125-8.625"/>
		</g>
		<g>
			<g>
				<g>
					<path style="fill:#724628;" d="M404.609,144.683c0,0-12.749-1.896-6.205-13.349c8.144-14.253,24.22-8.319,29.312-5.016
						c5.091,3.303,11.435,11.617,5.185,17.405C423.407,152.514,404.609,144.683,404.609,144.683z"/>
				</g>
			</g>
			<rect x="406.25" y="123.089" style="fill:#EAA07F;" width="16.31" height="15.4"/>
			<path style="fill:#724628;" d="M466.387,232.891c0.08,1.137-0.612,2.177-1.689,2.548c-3.919,1.35-9.823,4.842-12.698,3.38
				c-4.965-2.524-8.54-36.68-8.83-42.33c-0.38,10.66,0.09,22.94,0.35,28.35c0.09,1.79-1.11,3.37-2.85,3.8
				c-2.35,0.57-6.31,1.28-12.66,1.71H428c-9.2,0.63-23.43,0.69-45.03-1c-1.44-0.11-2.56-1.29-2.57-2.73
				c-0.11-9.66,0.93-41.14,0.93-41.14s-9.33,11.68-13.33,11.51c-3.94-0.16-12.52-10.65-21.68-39.95c-0.28-0.88,0.01-1.85,0.72-2.43
				c2.36-1.88,5.21-3.48,6.93-4.36c0.85-0.44,1.9-0.15,2.39,0.68l9.64,16.06c0,0,9.5-20.78,19.67-25.11
				c3.82-1.62,15.33-4.97,17.98-5.73c0.34-0.1,0.73-0.15,1.05,0.02c0.45,0.24,0.97,0.48,1.55,0.71c3.99,1.61,10.68,2.76,16.31-0.36
				c0.13-0.07,0.25-0.14,0.37-0.21c0.39-0.23,0.84-0.33,1.28-0.26c4.8,0.7,26.12,7.27,29.62,18.11c2,7.33,8,31.16,9.5,44.66
				C464.334,207.397,465.948,226.643,466.387,232.891z"/>
			<path style="fill:none;stroke:#EFB9A8;stroke-linecap:round;stroke-miterlimit:10;" d="M387.864,173.652
				c2.76-1.287,5.987-2.58,8.732-1.262c2.191,1.053,3.37,3.478,5.322,4.927c1.425,1.059,3.259,1.552,5.023,1.352
				c2.536-0.288,4.692-1.892,6.848-3.258c2.156-1.366,4.699-2.58,7.178-1.971c1.975,0.485,3.481,2.024,5.125,3.22
				c1.645,1.197,3.568,2.103,5.6,2.193c2.032,0.089,4.171-0.748,5.306-2.435"/>
			<path style="opacity:0.1;fill:#2C3559;" d="M437.2,178.819c0.55,7.53,1.75,15.02,1.67,22.56c-0.03,3.12-0.29,6.27-1.36,9.2
				c-0.96,2.65-2.55,5.02-3.98,7.45c-1.36,2.3-2.59,4.69-3.68,7.13c-0.53,1.2-1.17,2.45-1.52,3.72c-0.41,1.48-0.1,1.43,1.41,1.34
				c3.64-0.22,7.38-0.7,10.93-1.58c1.74-0.43,2.94-2.01,2.85-3.8c-0.26-5.41-0.73-17.69-0.35-28.35c0-0.73-4.63-23.33-6.45-32.17
				C436.72,164.319,436.85,173.999,437.2,178.819z"/>
			<g style="opacity:0.1;">
				<path style="fill:#2C3559;" d="M396.667,138.239c1.373,0.989,2.862,1.787,4.401,2.449l1.155,0.493
					c0.388,0.155,0.789,0.281,1.182,0.423c0.781,0.3,1.593,0.507,2.4,0.72c3.236,0.832,6.572,1.194,9.908,1.183l2.503-0.081
					c0.835-0.031,1.661-0.18,2.493-0.256c1.674-0.11,3.3-0.535,4.958-0.801c1.647-0.319,3.252-0.831,4.889-1.234
					c1.607-0.501,3.194-1.07,4.819-1.563c-1.537,0.702-3.098,1.366-4.664,2.028c-1.619,0.502-3.217,1.102-4.868,1.518
					c-1.658,0.383-3.313,0.818-5.015,0.992c-0.848,0.099-1.691,0.249-2.545,0.292l-2.564,0.105
					c-3.418-0.013-6.858-0.415-10.126-1.446C402.346,142.032,399.183,140.531,396.667,138.239z"/>
			</g>
			<path style="opacity:0.1;fill:none;stroke:#2C3559;stroke-miterlimit:10;" d="M381.333,185.481c0,0,0.833-18.992,4.333-24.659"/>
			<path style="fill:none;stroke:#4F301B;stroke-miterlimit:10;" d="M422.56,140.193c1.202,7.113,3.763,16.011,7.922,21.905
				s9.975,10.701,16.752,13.17"/>
			<g>
				<g>
					<g>
						<g>
							<path style="fill:#4F301B;" d="M445.799,175.751c0.104,0.946,0.956,1.628,1.902,1.524c0.946-0.104,1.628-0.956,1.524-1.902
								c-0.104-0.946-0.956-1.628-1.902-1.524C446.377,173.953,445.695,174.805,445.799,175.751z"/>
						</g>
					</g>
				</g>
			</g>
			<path style="fill:none;stroke:#4F301B;stroke-miterlimit:10;" d="M409.751,139.78c-2.378,7.69-3.254,15.919-1.91,23.952
				c1.344,8.033,4.979,15.858,10.818,21.868"/>
			<g>
				<g>
					<g>
						<g>
							<path style="fill:#4F301B;" d="M416.517,185.335c0.104,0.946,0.956,1.628,1.902,1.524c0.946-0.104,1.628-0.956,1.524-1.902
								c-0.104-0.946-0.956-1.628-1.902-1.524C417.095,183.538,416.412,184.389,416.517,185.335z"/>
						</g>
					</g>
				</g>
			</g>
			<path style="fill:#DB8D6E;" d="M422.56,136.519c-1.16,0.86-2.3,1.5-3.39,1.97c-4.24,1.82-7.87,1.02-10.2,0
				c-1.51-0.66-2.48-1.41-2.72-1.61C410.24,138.489,416.93,139.639,422.56,136.519z"/>
			<circle style="fill:#EFB9A8;" cx="406.167" cy="173.989" r="1.5"/>
			<circle style="fill:#EFB9A8;" cx="419.75" cy="177.989" r="1.5"/>
			<circle style="fill:#EFB9A8;" cx="432.083" cy="174.572" r="1.5"/>
			<circle style="fill:#EFB9A8;" cx="393.083" cy="177.156" r="1.5"/>
		</g>
		<g>
			<g>
				<path style="fill:#DB8D6E;" d="M433.754,110.838c0.493,2.831-2.044,6.408-4.25,6.792c-2.206,0.384-4.667-0.491-3.668-3.771
					c0.837-2.749,0.858-5.139,2.979-5.858C430.761,107.342,433.261,108.007,433.754,110.838z"/>
				<path style="fill:#DB8D6E;" d="M393.044,111.088c-0.493,2.831,2.044,6.408,4.25,6.792c2.206,0.384,4.667-0.491,3.668-3.771
					c-0.837-2.749-0.896-5.437-3.102-5.821C395.653,107.903,393.537,108.257,393.044,111.088z"/>
				<path style="fill:#DB8D6E;" d="M422.56,124.739v3.63c-2.18,1.39-5.09,2.22-8.94,2.33c-3.03,0.09-5.44-0.77-7.37-1.77v-4.19
					H422.56z"/>
				<path style="fill:#EAA07F;" d="M428.831,108.941c0,11.356-1.991,20.177-15.25,20.563c-14.368,0.418-15.25-9.206-15.25-20.563
					c0-11.356,6.828-20.563,15.25-20.563C422.003,88.378,428.831,97.585,428.831,108.941z"/>
			</g>
			
				<path style="fill:none;stroke:#E2906D;stroke-width:0.653;stroke-linecap:round;stroke-linejoin:round;stroke-miterlimit:10;" d="
				M411.556,108.918c0,0-0.055,4.136-1.773,6.036c0,0,0.691,0.558,1.877,1.266"/>
			<path style="fill:#382F2C;" d="M419.485,108.884c-0.073,0.838-0.614,1.476-1.21,1.424s-1.02-0.773-0.947-1.611
				c0.072-0.838,0.614-1.476,1.209-1.424C419.134,107.325,419.558,108.046,419.485,108.884z"/>
			
				<path style="fill:none;stroke:#212020;stroke-width:1.2268;stroke-linecap:round;stroke-linejoin:round;stroke-miterlimit:10;" d="
				M416.017,104.173c0,0,4.714-1.578,7.618,0.327C423.636,104.5,420.41,101.629,416.017,104.173z"/>
			<path style="fill:#FFFFFF;" d="M412.234,117.929c-1.729,0.062-3.323-0.065-4.594-0.325c-0.047,0.294-0.072,0.595-0.061,0.904
				c0.094,2.623,2.345,4.671,5.027,4.575s4.78-2.3,4.686-4.923c-0.012-0.341-0.064-0.671-0.146-0.99
				C415.848,117.578,414.131,117.861,412.234,117.929z"/>
			<path style="fill:#DB8D6E;" d="M416.845,113.718c0.088,1.174,1.683,2.012,3.563,1.87c1.879-0.141,3.331-1.208,3.243-2.382
				c-0.088-1.174-1.683-2.012-3.563-1.87C418.208,111.477,416.756,112.544,416.845,113.718z"/>
			<path style="fill:#DB8D6E;" d="M400.078,105.33c0.104-0.677,0.213-1.367,0.521-1.978c0.307-0.608,0.795-1.103,1.301-1.559
				c0.872-0.785,1.868-1.502,3.023-1.712c1.503-0.273,3.168,0.331,4.523-0.375c0.139-0.072,0.274-0.158,0.427-0.188
				c0.241-0.047,0.484,0.053,0.712,0.145c3.475,1.406,7.443,1.555,11.013,0.415c0.318-0.102,0.64-0.214,0.974-0.223
				c0.471-0.012,0.923,0.184,1.33,0.42c1.844,1.071,3.03,2.964,4.143,4.783c0.687-2.987,1.36-6.19,0.246-9.045
				c-0.68-1.742-1.976-3.182-3.423-4.368c-1.236-1.013-2.608-1.875-4.106-2.433c-2.828-1.053-5.929-0.976-8.946-1.02
				c-1.376-0.02-2.784-0.064-4.094,0.359c-1.721,0.555-3.095,1.859-4.247,3.252c-2.426,2.933-4.149,6.444-4.982,10.158
				c-0.36,1.607-0.538,3.35-0.067,4.954c0.12,0.408,0.48,1.773,1.111,1.192c0.276-0.254,0.249-0.891,0.302-1.234
				C399.92,106.359,399.999,105.845,400.078,105.33z"/>
			<path style="fill:#382F2C;" d="M405.724,108.884c0.073,0.838,0.614,1.476,1.21,1.424c0.595-0.051,1.02-0.773,0.947-1.611
				c-0.073-0.838-0.614-1.476-1.209-1.424C406.076,107.325,405.652,108.046,405.724,108.884z"/>
			
				<path style="fill:none;stroke:#212020;stroke-width:1.2253;stroke-linecap:round;stroke-linejoin:round;stroke-miterlimit:10;" d="
				M409.178,104.336c0,0-4.836-1.099-7.532,1.086C401.645,105.422,404.565,102.244,409.178,104.336z"/>
			<path style="fill:#DB8D6E;" d="M408.365,113.718c-0.088,1.174-1.683,2.012-3.563,1.87c-1.879-0.141-3.331-1.208-3.243-2.382
				c0.088-1.174,1.683-2.012,3.563-1.87C407.002,111.477,408.454,112.544,408.365,113.718z"/>
			<path style="fill:#2B2B2B;" d="M429.225,107.917c-0.759,0.312-1.738,1.494-2.125,2.157l-0.026-4.718
				c-0.006-1.014-0.27-2.009-0.768-2.892l-2.854-5.06c0.789-0.685,1.456-1.507,1.964-2.408c0.742-1.31,1.222-2.766,1.334-4.245
				c1.819,1.663,3.391,3.941,4.364,5.247c0.257,0.889-0.524,7.959-1.234,11.173C429.804,107.516,429.553,107.782,429.225,107.917z"
				/>
			<path style="fill:#2B2B2B;" d="M408.961,90.176c0,0-3.037,4.077,1.253,7.728c1.088,0.926,2.75,1.284,4.122,1.472
				c1.883,0.258,3.843,0.156,5.67-0.377c5.017-1.465,7.796-7.239,6.346-12.182c-0.211-0.719-0.557-1.394-0.941-2.034
				c-0.262,1.099-0.391,1.808-1.226,2.686c0.265-0.78,0.375-3.201-0.277-4.29c-1.034,1.473-3.639,3.353-7.132,3.461
				c0.703-0.465,0.915-1.883,0.882-2.728c-0.311,0.734-4.662,1.946-5.801,2.132L408.961,90.176z"/>
			<path style="fill:#323544;" d="M406.381,92.244c-0.019,1.001,0.066,1.955,0.436,2.794c0.173,0.422,0.426,0.808,0.745,1.147
				c0.306,0.357,0.697,0.634,1.095,0.952c-0.488-0.109-0.983-0.3-1.385-0.638c-0.22-0.148-0.382-0.359-0.561-0.555
				c-0.147-0.22-0.297-0.442-0.397-0.688c-0.207-0.488-0.306-1.016-0.288-1.533C406.044,93.207,406.148,92.696,406.381,92.244z"/>
			<path style="fill:#323544;" d="M408.587,90.957c-0.405,0.981-0.628,1.974-0.522,2.953c0.053,0.485,0.153,0.973,0.349,1.436
				c0.074,0.242,0.209,0.459,0.309,0.698c0.114,0.232,0.256,0.45,0.37,0.698c-0.206-0.168-0.409-0.347-0.592-0.546
				c-0.16-0.215-0.354-0.416-0.472-0.665c-0.295-0.467-0.441-1.019-0.508-1.571c-0.054-0.556,0.017-1.123,0.204-1.64
				C407.906,91.804,408.193,91.323,408.587,90.957z"/>
			<path style="fill:#2B2B2B;" d="M426.667,90.678c-0.934-0.843-1.93-1.518-2.945-1.811c-2.242-0.651-7.652-2.271-11.863-2.826
				c-1.474-0.194-2.8-0.257-3.791-0.104c-3.83,0.592-6.678,2.543-8.599,4.849c-1.918,2.304-2.496,2.584-2.496,2.584
				s0.264,0.272,1.401-0.244c-1.936,2.444-2.78,5.002-2.88,5.628c-0.577,3.617,0.319,7.697,0.589,9.423
				c0.564-0.044,1.166,0.003,1.776,0.109c0.833,0.145,1.359,0.619,1.737,1.3c-0.022-2.583-0.07-8.422,1.041-10.375
				c2.229,0.241,4.515,0.988,8.02-2.076c0.143-0.124,0.285-0.254,0.433-0.395h0.003c0.407-0.384,0.833-0.817,1.274-1.308
				c3.576,0.454,6.601,0.856,8.825,1.16c0.231,0.031,0.454,0.062,0.669,0.091c1.51,0.208,2.574,0.358,3.095,0.433
				c0.218,0.031,0.34,0.049,0.361,0.052c0.003,0,0.003,0,0.003,0l0.13,0.233c0,0,0,0,0.003,0c0.789-0.685,1.456-1.507,1.964-2.408
				c0.742-1.31,1.222-2.766,1.334-4.245C426.721,90.725,426.695,90.702,426.667,90.678z"/>
			<path style="fill:#1C1D1E;" d="M426.75,90.751c-0.112,1.479-0.592,2.935-1.334,4.245c-0.509,0.9-1.175,1.723-1.964,2.408
				c-0.003,0-0.003,0-0.003,0c-0.361,0.311-0.745,0.592-1.155,0.841c-1.3,0.794-2.792,1.245-4.289,1.36
				c-0.75,0.073-1.5,0.052-2.242,0.008c-0.371-0.039-0.74-0.096-1.108-0.14c-0.363-0.068-0.727-0.14-1.087-0.218
				c0.368,0.018,0.737,0.042,1.103,0.073c0.368,0.005,0.734,0.018,1.103,0.016c0.732-0.01,1.463-0.036,2.182-0.156
				c1.435-0.21,2.833-0.651,4.053-1.409c0.332-0.197,0.646-0.418,0.947-0.659c0.817-0.654,1.521-1.458,2.102-2.343
				c0.402-0.602,0.734-1.253,1.012-1.93c0.166-0.379,0.309-0.768,0.431-1.165C426.594,91.376,426.677,91.065,426.75,90.751z"/>
			<path style="fill:#1C1D1E;" d="M422.441,92.672c-0.36,1.02-0.902,1.979-1.56,2.849c-0.658,0.873-1.454,1.649-2.361,2.282
				c-0.902,0.642-1.962,1.059-3.043,1.264c-1.086,0.249-2.205,0.09-3.25-0.133c0.272-0.003,0.541-0.002,0.808,0.006
				c0.267,0.01,0.532,0.016,0.796-0.032l0.787-0.081l0.767-0.177c1.003-0.279,1.978-0.683,2.826-1.299
				c0.862-0.589,1.637-1.309,2.339-2.099C421.243,94.453,421.89,93.6,422.441,92.672z"/>
		</g>
		<path style="opacity:0.1;fill:none;stroke:#2C3559;stroke-miterlimit:10;" d="M366,166.989c0,0-0.25,6.625,0,8"/>
	</g>
	<g>
		<g>
			<g>
				<path style="fill:#FFC7A8;" d="M294.5,238.336c1.721,2.267,3.355,4.292,4.679,5.906c1.555,1.91,2.685,3.261,3.075,3.821
					c1.925,2.761,4.885,1.156,8.071,2.634c2.167,3.436,1.573,3.064,4.092,3.387c2.516,0.333,6.709-3.222,6.873-5.402
					c0.167-2.19-1.477-7.597-4.107-8.271c-2.627-0.685-9.172-0.325-11.183-0.029c-0.25,0.039-0.593-0.337-0.989-0.99
					c-0.443-0.724-0.958-1.777-1.502-2.998L294.5,238.336z"/>
				
					<path style="fill:none;stroke:#E29986;stroke-width:0.4141;stroke-linecap:round;stroke-linejoin:round;stroke-miterlimit:10;" d="
					M312.869,240.841c2.025,0.643,3.021,0.945,5.016,2.981c1.677,1.711-0.452,3.122-1.593,1.869
					c-1.141-1.253-2.419-1.034-4.633-0.067c-0.931,0.407-2.92,1.222-4.332,0.068"/>
				
					<path style="fill:none;stroke:#E29986;stroke-width:0.4141;stroke-linecap:round;stroke-linejoin:round;stroke-miterlimit:10;" d="
					M320.054,250.315c0,0-0.973,0.557-3.086,0.075c-2.477-0.565-3.644-2.74-3.644-2.74"/>
				
					<path style="fill:none;stroke:#E29986;stroke-width:0.4141;stroke-linecap:round;stroke-linejoin:round;stroke-miterlimit:10;" d="
					M318.213,252.256c0,0-1.772,1.021-3.699,0.029c-1.928-0.993-2.131-3.396-2.131-3.396"/>
				
					<path style="fill:none;stroke:#E29986;stroke-width:0.4141;stroke-linecap:round;stroke-linejoin:round;stroke-miterlimit:10;" d="
					M316.112,253.56c0,0-1.772,1.021-3.699,0.028c-1.927-0.993-2.131-3.396-2.131-3.396"/>
			</g>
			<polygon style="fill:#EFAB89;" points="299.5,244.614 305.104,239.489 304.687,238.697 			"/>
		</g>
		<g>
			<g>
				<g>
					<path style="fill:#FFC7A8;" d="M189.722,166.927c0,0,0.559-5.757,0.796-6.82c0.237-1.063-0.741-3.748-1.325-5.58
						c3.721-1.93,10.917-4.656,10.917-4.656s-3.129,7.739-2.485,9.514c0.46,1.268,1.25,5.563,1.25,5.563L189.722,166.927z"/>
					<g>
						<g>
							<g>
								<path style="fill:#FFC7A8;" d="M190.8,156.548c1.254,0.695,6.386,0.351,8.144-4.006c1.628-4.036,2.756-4.676,3.544-7.769
									c0.682-2.678-1.065-1.056-2.676,0.497c-1.611,1.553-1.874,2.553-2.887,0.826c-1.013-1.727-1.968-10.132-3.393-11.835
									c-1.425-1.703-0.227,8.984-0.227,8.984s-2.498-8.812-3.761-8.994c-1.512-0.217,0.621,9.348,0.621,9.348
									s-3.193-7.179-3.77-7.002c-1.12,0.344,0.935,7.995,0.935,7.995s-2.45-4.829-3.079-4.085
									C183.623,141.251,186.157,151.645,190.8,156.548z"/>
							</g>
						</g>
					</g>
				</g>
				<path style="fill:#F2B699;" d="M187.904,146.932c0.007-0.009,0.015-0.019,0.023-0.027c0.142-0.148,3.535-3.616,7.731-2.233
					c0.156,0.051,0.241,0.22,0.189,0.376c-0.052,0.156-0.22,0.241-0.376,0.189c-3.835-1.264-7.083,2.046-7.115,2.08
					c-0.114,0.118-0.302,0.122-0.421,0.008C187.826,147.22,187.814,147.05,187.904,146.932z"/>
			</g>
			<polygon style="fill:#EFBA9E;" points="190.625,159.614 197.676,157.413 197.541,158.697 			"/>
		</g>
		<g>
			<g>
				<path style="fill:#191919;" d="M295.032,412.554l-4.676-10.981c0,0,1.269,7.933,0.635,10.062
					c-0.626,2.129-5.311,4.785-8.476,6.263c-8.267,3.582-12.125,2.463-12.166,1.47c-0.008-0.184,0.109-0.367,0.359-0.509
					c9.628-7.039,9.569-17.018,8.459-22.888c-0.551-2.923-1.369-4.826-1.369-4.826c4.442-0.234,10.304-7.323,10.338-7.323
					l12.141,26.195L295.032,412.554z"/>
			</g>
			<g style="opacity:0.2;">
				<path style="fill:#2B2B2B;" d="M285.696,394.25v4.86c-0.71,5.252-2.672,10.329-5.661,14.705
					c-0.735,1.077-1.545,2.121-2.597,2.881c-1.177,0.852-2.58,1.303-3.966,1.729c-1.019,0.317-2.029,0.626-3.048,0.927
					c-0.025,0.008-0.05,0.017-0.075,0.017c-0.008-0.184,0.109-0.367,0.359-0.509c9.628-7.039,9.569-17.018,8.459-22.888
					c1.01-1.228,2.238-2.255,3.716-2.839c0.568-0.225,1.202-0.384,1.795-0.225C285.262,393.073,285.78,393.641,285.696,394.25z"/>
			</g>
		</g>
		<g>
			<g>
				<path style="fill:#191919;" d="M249.875,418.627l-5.929,0.359l-0.134-12.175c0,0-1.896,7.966-3.315,9.728
					c-1.42,1.762-6.872,2.447-10.421,2.605c-6.346,0.109-9.845-1.077-11.281-2.138c-1.027-0.76-1.01-1.445-0.234-1.553
					c12.008-2.931,15.765-12.617,16.943-18.554c0.559-2.831,0.534-4.81,0.534-4.81c4.309,1.52,12.684-2.948,12.592-2.873
					L249.875,418.627z"/>
			</g>
			<g style="opacity:0.2;">
				<path style="fill:#2B2B2B;" d="M241.516,398.645c-0.785,1.72-1.57,3.449-2.355,5.169c-0.818,1.804-1.645,3.616-2.789,5.236
					c-3.808,5.378-10.722,7.841-17.31,7.958h-0.267c-1.027-0.76-1.01-1.445-0.234-1.553c12.008-2.931,15.765-12.617,16.943-18.554
					c1.62-0.468,3.273-0.752,4.985-0.81L241.516,398.645z"/>
			</g>
		</g>
		<path style="opacity:0.15;fill:#FFC3A4;" d="M258.91,159.299c-12.36,13.26-21.7,4.11-23.81,1.66c0.57-0.07,2.13-0.38,3.41-1.5
			c0.17,0.1,0.34,0.22,0.5,0.34c0.34,0.27,0.62,0.61,1,0.82c0.26,0.15,0.55,0.23,0.84,0.31c0.47,0.12,0.94,0.24,1.41,0.37
			c0.41,0.1,0.83,0.09,1.26,0.1c0.7,0.02,1.4,0.03,2.07-0.18c0.3-0.1,0.59-0.24,0.91-0.31c0.77-0.17,1.58,0.12,2.37,0.05
			c1.3-0.13,2.31-1.2,3.57-1.53c0.32-0.09,0.64-0.12,0.95-0.19c0.67-0.15,1.3-0.45,1.91-0.75c0.23-0.11,0.46-0.23,0.69-0.34
			C256.78,158.549,257.74,158.929,258.91,159.299z"/>
		<g>
			<path style="fill:#2B2B2B;" d="M223.375,146.064c-0.045-0.448,0.075-0.92,0.435-1.421c2.657-3.699,4.746-7.426,6.312-11.724
				c0.102-0.28,0.202-0.561,0.301-0.842c1.54-4.381,2.25-9.665,4.491-13.712c1.665-3.007,4.673-5.621,7.861-6.877
				c2.473-0.974,5.214-1.206,7.82-0.693c1.036,0.204,2.065,0.518,3.017,0.979c0.193,0.094,1.866,1.28,1.905,1.263
				c3.286-1.365,12.448,3.18,15.313,13.087c2.709,9.366,9.382,5.562,15.275,15.818c-1.442,2.666-5.207,8.912-10.932,13.451
				c-1.047-1.41-3.799-5.117-4.037-5.415l2.971,6.225c-3.837,2.774-8.477,4.708-13.828,4.389c-9.649-0.575-19.537-2.33-27.422-6.511
				c0.606-1.999,1.578-5.216,1.661-5.527l-2.645,4.988c-2.006-1.141-3.91-2.469-5.629-4.011
				C225.104,148.511,223.509,147.394,223.375,146.064z"/>
			<path style="fill:#1C1C1C;" d="M264.189,141.37c-0.327-1.017-0.829-1.664-1.44-2.04c-1.625-0.999-2.736-2.651-2.715-4.558
				c0.019-1.792,0.018-3.21,0.257-4.201c0.675-2.789-9.318-8.12-12.625-8.629c-9.259-1.424-11.587,1.511-12.187,9.419
				c-0.6,7.908-1.779,17.574,2.624,22.159c3.789,3.945,13.89,3.247,18.374-2.45c0.885-1.124,2.118-1.973,3.534-2.176
				c0.304-0.044,0.61-0.115,0.907-0.211C263.051,147.998,265.068,144.105,264.189,141.37z"/>
			<path style="fill:#FFBD9D;" d="M259.54,187.569l-23.06-0.58l-1.61-26c0,0,0.08-0.01,0.23-0.03c0.57-0.07,2.13-0.38,3.41-1.5
				c1.09-0.95,1.98-2.47,1.95-4.92c0-0.18,0-0.37-0.02-0.57c-0.44-6.65,12.28-0.97,12.28-0.97s-0.25,0.47-0.21,1.19
				c0.05,1.02,0.7,2.55,3.48,3.96c0.79,0.4,1.75,0.78,2.92,1.15c0.2,0.06,0.41,0.13,0.63,0.19
				C259.46,178.659,259.54,187.569,259.54,187.569z"/>
			<g>
				<path style="opacity:0.15;fill:#FFC3A4;" d="M252.72,152.999c0,0-0.25,0.47-0.21,1.19c-3.98,1.87-8.87,1.96-12.05,0.35
					c0-0.18,0-0.37-0.02-0.57C240,147.319,252.72,152.999,252.72,152.999z"/>
				<path style="fill:#FFC3A4;" d="M260.25,129.429c-0.29,1.17-0.23,2.94-0.27,5.23c-0.06,3.14-0.29,7.24-1.85,12.1
					c-2.74,8.52-15.67,10.2-20.07,5.62c-4.17-4.35-3.33-13.26-2.72-20.91c0.04-0.42,0.07-0.84,0.1-1.25
					c0.6-7.91,2.93-10.85,12.18-9.42C250.93,121.309,260.92,126.639,260.25,129.429z"/>
				<path style="fill:#F8B593;" d="M260.25,129.429c-0.29,1.17-0.23,2.94-0.27,5.23c-14.8-6.09-21.83-4.53-24.64-3.19
					c0.04-0.42,0.07-0.84,0.1-1.25c0.6-7.91,2.93-10.85,12.18-9.42C250.93,121.309,260.92,126.639,260.25,129.429z"/>
				<path style="fill:none;stroke:#E2906D;stroke-width:0.5;stroke-linecap:round;stroke-linejoin:round;stroke-miterlimit:10;" d="
					M241.243,137.988c0,0-0.012,3.167-1.315,4.634c0,0,0.533,0.423,1.446,0.956"/>
				<path style="fill:#382F2C;" d="M247.315,137.906c-0.05,0.642-0.46,1.134-0.916,1.099c-0.456-0.035-0.786-0.584-0.737-1.227
					c0.05-0.642,0.46-1.134,0.916-1.099C247.034,136.715,247.364,137.264,247.315,137.906z"/>
				<path style="fill:#382F2C;" d="M238.432,137.696c-0.049,0.642-0.46,1.134-0.916,1.099c-0.456-0.035-0.786-0.584-0.736-1.227
					c0.049-0.642,0.46-1.134,0.916-1.099C238.152,136.505,238.482,137.054,238.432,137.696z"/>
				<path style="fill:#2B2B2B;" d="M250.837,134.998c0.145,0.017,0.295-0.03,0.407-0.139c0.186-0.183,0.201-0.478,0.033-0.679
					c-0.099-0.117-2.459-2.852-6.914-1.451c-0.247,0.078-0.393,0.331-0.338,0.584c0.055,0.253,0.292,0.423,0.551,0.389
					c0.041-0.005,4.085-0.492,5.989,1.176C250.644,134.947,250.739,134.987,250.837,134.998z"/>
				<path style="fill:#2B2B2B;" d="M234.317,133.818c0.125,0.014,0.255-0.019,0.362-0.101c0.086-0.065,1.885-1.404,4.704-0.594
					c0.253,0.071,0.516-0.062,0.606-0.307c0.091-0.245-0.022-0.519-0.259-0.628c-0.127-0.057-3.121-1.4-5.678,0.751
					c-0.209,0.175-0.239,0.485-0.067,0.697C234.071,133.742,234.191,133.804,234.317,133.818z"/>
				<path style="fill:#FFC3A4;" d="M264.147,140.224c0.88,2.735-1.138,6.628-3.27,7.314c-2.132,0.686-4.69,0.159-4.154-3.228
					c0.449-2.838,0.136-5.509,2.268-6.194C261.123,137.43,263.267,137.488,264.147,140.224z"/>
				<path style="fill:#FFFFFF;" d="M241.661,145.023c-1.168-0.024-2.237-0.186-3.084-0.437c-0.043,0.223-0.072,0.452-0.077,0.689
					c-0.04,2.009,1.395,3.668,3.207,3.704c1.812,0.037,3.313-1.563,3.354-3.572c0.005-0.261-0.017-0.516-0.059-0.763
					C244.111,144.903,242.942,145.049,241.661,145.023z"/>
				<path style="fill:#F8B593;" d="M245.285,141.407c0.125,0.893,1.385,1.455,2.814,1.256c1.429-0.199,2.487-1.085,2.362-1.978
					c-0.125-0.893-1.384-1.455-2.813-1.256C246.218,139.628,245.161,140.514,245.285,141.407z"/>
				<path style="fill:#F8B593;" d="M238.121,141.723c0.089-0.897-1.003-1.74-2.439-1.882c-0.293-0.029-0.574-0.019-0.842,0.01
					c-0.015,1.076,0.004,2.135,0.064,3.165c0.148,0.032,0.299,0.059,0.456,0.074C236.796,143.233,238.033,142.62,238.121,141.723z"
					/>
				<path style="fill:#2B2B2B;" d="M235.194,123.314c3.48-5.494,8.484-7.691,14.374-7.104c5.89,0.587,8.675,2.741,10.434,7.568
					c1.76,4.827-0.683,12.988-0.683,12.988s-0.641-2.998-4.343-5.19c0,0,0.613-2.516,0.671-3.594c0,0-0.7,2.983-1.42,3.307
					c0,0-6.939-2.878-13.409-2.124c0.004-0.521,0.031-1.592,0.167-2.789c0,0-0.64,1.52-0.924,2.895
					c-2.638,0.431-5.149,1.517-7.017,3.712C233.043,132.984,231.714,128.808,235.194,123.314z"/>
			</g>
		</g>
		<g style="opacity:0.15;">
			<circle style="fill:none;stroke:#2E2E30;stroke-width:0.5;stroke-miterlimit:10;" cx="248.26" cy="139.208" r="4.458"/>
			<circle style="fill:none;stroke:#2E2E30;stroke-width:0.5;stroke-miterlimit:10;" cx="237.51" cy="138.187" r="3.583"/>
			<path style="fill:none;stroke:#2E2E30;stroke-width:0.5;stroke-miterlimit:10;" d="M244.021,137.875c0,0-1.406-1.688-3.063-0.125
				"/>
			
				<line style="fill:none;stroke:#2E2E30;stroke-width:0.5;stroke-miterlimit:10;" x1="252.552" y1="138.25" x2="261.885" y2="137.979"/>
		</g>
		<g>
			<circle style="fill:none;stroke:#2E2E30;stroke-width:0.5;stroke-miterlimit:10;" cx="247.583" cy="138.718" r="4.458"/>
			<circle style="fill:none;stroke:#2E2E30;stroke-width:0.5;stroke-miterlimit:10;" cx="236.833" cy="137.697" r="3.583"/>
			<path style="fill:none;stroke:#2E2E30;stroke-width:0.5;stroke-miterlimit:10;" d="M243.343,137.385c0,0-1.406-1.688-3.063-0.125
				"/>
			
				<line style="fill:none;stroke:#2E2E30;stroke-width:0.5;stroke-miterlimit:10;" x1="251.874" y1="137.76" x2="261.208" y2="137.489"/>
		</g>
		<g>
			<path style="fill:#FFFFFF;" d="M217.499,168.947l-14.875,17.208c0,0-3.583-24.458-5.083-27.458c-4.5,0.5-7.042,1.042-7.042,1.042
				s-3.921,35.131,0.063,48.752c0.501,1.713,2.262,2.72,3.993,2.285c8.152-2.05,29.069-20.829,29.069-20.829L217.499,168.947z"/>
			<path style="fill:#FFFFFF;" d="M274.97,167.259l-0.21,0.84l-5.59,22.76l-1.5,6.09c-1.6,6.17-2.99,12.72-2.7,19.14
				c0.02,0.39,0.1,0.78,0.13,1.17c0.03,0.31,0.27,0.64,0.5,0.87c-0.11-0.11-1.12,0.07-1.27,0.11c-0.38,0.1-0.76,0.16-1.15,0.22
				c-0.43,0.07-0.87,0.13-1.31,0.19c-0.41,0.06-0.82,0.12-1.23,0.17c-0.39,0.05-0.79,0.11-1.18,0.15c-4.68,0.59-9.41,0.9-14.13,0.93
				c-1.07,0.01-2.15,0-3.22-0.02c-2.41-0.04-4.82-0.17-7.21-0.47c-1.21-0.15-2.42-0.35-3.62-0.61c-0.58-0.12-1.12-0.1-1.69-0.26
				c-0.23-0.06-1.43-0.31-1.54-0.4c-0.2-0.18-0.12-1.02-0.13-1.26c-0.06-0.79-0.12-1.59-0.19-2.38c-0.19-2.31-0.42-4.61-0.7-6.91
				c-0.05-0.41-0.1-0.82-0.15-1.23c-0.39-2.98-0.88-5.98-1.49-8.22l-2.22-8.15l-5.69-20.95c0,0,10.21-7.15,17.44-8.2
				c13.58,9.11,24.66-1.56,24.66-1.56l5.42,2.08c2.07,0.79,4.05,1.77,5.95,2.94l0.3,0.22L274.97,167.259z"/>
			<path style="fill:#FFFFFF;" d="M272.25,165.572c0,0,13.708,4.75,18.208,38.5c12.25,30.5,14.229,34.625,14.229,34.625l-5.25,5.875
				c0,0-23.813-24-30.563-54.75C269.125,162.572,272.25,165.572,272.25,165.572z"/>
			<g>
				<path style="fill:#FFFFFF;" d="M259.64,159.291c-0.495-0.258-0.99-0.515-1.485-0.773c-0.231-0.12-0.556-0.367-0.81-0.348
					c-0.261,0.02-0.655,0.32-0.892,0.436c-0.321,0.157-0.642,0.314-0.964,0.471c-0.616,0.301-1.239,0.605-1.908,0.754
					c-0.316,0.07-0.64,0.106-0.953,0.188c-1.261,0.333-2.276,1.408-3.575,1.529c-0.79,0.074-1.596-0.221-2.371-0.049
					c-0.313,0.069-0.604,0.212-0.909,0.309c-0.662,0.211-1.372,0.203-2.067,0.185c-0.43-0.011-0.85,0.003-1.265-0.106
					c-0.468-0.123-0.936-0.246-1.404-0.369c-0.29-0.076-0.584-0.154-0.845-0.301c-0.375-0.212-0.658-0.552-0.993-0.822
					c-0.241-0.194-0.508-0.352-0.774-0.51c-0.345-0.204-0.696-0.411-1.08-0.534c-0.4-0.129-0.579-0.121-0.908,0.128
					c-0.588,0.444-1.063,1.015-1.605,1.51C234.833,160.989,245.265,175.371,259.64,159.291z"/>
				<g style="opacity:0.1;">
					<path style="fill:#2C3559;" d="M234.874,161.043c0.972,0.551,1.958,1.057,2.994,1.446c0.504,0.222,1.031,0.389,1.542,0.585
						l1.578,0.462c2.119,0.538,4.305,0.782,6.465,0.626c2.153-0.144,4.309-0.587,6.315-1.456c1.049-0.334,1.972-0.942,2.959-1.437
						c0.972-0.525,1.845-1.212,2.814-1.784c-0.407,0.379-0.823,0.754-1.248,1.12c-0.434,0.353-0.821,0.778-1.299,1.076
						c-0.954,0.592-1.861,1.291-2.913,1.729c-2.012,1.071-4.297,1.579-6.568,1.75c-2.281,0.139-4.592-0.152-6.741-0.89
						C238.626,163.545,236.586,162.491,234.874,161.043z"/>
				</g>
			</g>
			<path style="opacity:0.1;fill:none;stroke:#2C3559;stroke-miterlimit:10;" d="M269.25,191.072c0,0-1.813-4.688-2.125-11.5"/>
			<path style="opacity:0.1;fill:none;stroke:#2C3559;stroke-miterlimit:10;" d="M223.132,190.199c0,0,2.243-9.939,3.305-10.752"/>
			<path style="opacity:0.1;fill:none;stroke:#2C3559;stroke-miterlimit:10;" d="M202.624,186.156c0,0-3.249,6.708-3.124,9.083"/>
			<path style="opacity:0.1;fill:none;stroke:#2C3559;stroke-miterlimit:10;" d="M291.083,206.239c0,0-4.167,1-5.917,3"/>
		</g>
		<g>
			<path style="fill:#2B2B2B;" d="M265.14,298.039c1.67-7.69,3.11-15.45,4.62-23.18c3.02-15.31,7.42-36.89-0.76-51.79
				c-0.99-1.8-2.16-3.5-3.54-5.08c-0.2-0.23-18.36,2.06-25.09,1.27c-7.04-0.82-10.91-1.12-12.06-1.19
				c-0.25-0.02-0.37-0.03-0.37-0.03s-0.07,6.12-0.26,8.99c-0.07,0.89-0.13,1.9-0.21,3.02c-1.1,16.6-3.52,56.29-2.7,74.12
				c1.05,22.85-0.35,90.21-1.05,93.47c9.82,6.94,31.58,4.49,38.27-2.85c1.4,5.71,1.4,7.35,1.4,7.35s6.96,0.28,15.12-1.3
				c0.84-0.17,1.69-0.35,2.53-0.55c0.29-0.07,0.57-0.14,0.86-0.21c0.29-0.08,0.57-0.15,0.86-0.23c0.06-0.01,0.13-0.03,0.2-0.05
				c0.51-0.14,1.02-0.29,1.52-0.44c0.29-0.09,0.58-0.18,0.87-0.28c0.28-0.09,0.57-0.19,0.85-0.29c2.74-0.95,5.43-2.18,7.84-3.76
				c0.18-0.11,0.35-0.23,0.52-0.35c0.3-0.2,0.6-0.42,0.89-0.64c0.14-0.1,0.28-0.21,0.42-0.32c0.59-0.46,1.16-0.95,1.7-1.46
				c0.15-0.14,0.3-0.29,0.45-0.43c1.02-1.02,1.95-2.15,2.75-3.38c0.13-0.2,0.25-0.41,0.38-0.62c0.31-0.52,0.6-1.06,0.86-1.62
				C287.61,352.739,264.09,302.949,265.14,298.039z M243.63,266.829c-0.1-4.46-0.17-8.93-0.21-13.4l0.01,0.01
				c0.04,4.47,0.11,8.93,0.21,13.39c0.06,3.78,0.14,7.55,0.25,11.32C243.78,274.379,243.7,270.609,243.63,266.829z M245.39,303.879
				c-0.09-0.67-0.16-1.35-0.23-2.03c0.07,0.68,0.15,1.36,0.24,2.03c0.04,0.31,0.1,0.63,0.15,0.94
				C245.5,304.509,245.44,304.189,245.39,303.879z M247.22,312.899c-0.14-0.67-0.28-1.33-0.41-1.99c0.14,0.66,0.28,1.32,0.42,1.99
				l1.46,7.48L247.22,312.899z M255.68,358.329c-0.22-1.25-0.44-2.5-0.67-3.75c0.23,1.25,0.45,2.5,0.68,3.75l0.33,1.91
				L255.68,358.329z"/>
			<g style="opacity:0.5;">
				<path style="fill:#1C2730;" d="M261.99,394.787l-3.49-18.145l-3.44-18.154c-2.296-12.106-4.518-24.232-6.864-36.318
					l-1.745-9.067c-0.309-1.495-0.601-3.019-0.927-4.505c-0.334-1.476-0.643-3.019-0.877-4.573
					c-0.184-1.553-0.367-3.097-0.476-4.641c-0.142-1.553-0.225-3.097-0.317-4.65c-0.184-3.097-0.292-6.194-0.367-9.3
					c-0.167-6.194-0.242-12.397-0.259-18.591c0.008-4.621,0.033-9.232,0.092-13.834c0.017-1.592,0.042-3.175,0.067-4.757
					c0.008,1.728,0.025,3.446,0.042,5.174v0.01c0.042,4.466,0.109,8.931,0.209,13.397c0.1,6.194,0.242,12.388,0.484,18.572
					c0.284,6.184,0.501,12.388,1.278,18.475c0.225,1.495,0.526,2.971,0.877,4.495c0.342,1.505,0.635,3.01,0.952,4.524l1.779,9.067
					c2.28,12.106,4.518,24.222,6.68,36.367l3.207,18.212L261.99,394.787z"/>
			</g>
			<path style="opacity:0.2;" d="M261.99,394.787c-6.672,7.349-28.441,9.796-38.269,2.854c14.646,5.932,31.397-6.301,29.201-17.95
				c-2.188-11.65-10.956-70.277-10.956-75.015c0-4.728,1.253-52.065,1.253-52.065l0.1,0.398l0.109,0.417v0.01
				c0.042,4.466,0.109,8.931,0.209,13.397c0.1,6.194,0.242,12.388,0.484,18.572c0.284,6.184,0.501,12.388,1.278,18.475
				c0.225,1.495,0.526,2.971,0.877,4.495c0.342,1.505,0.635,3.01,0.952,4.524l1.779,9.067c2.28,12.106,4.518,24.222,6.68,36.367
				l3.207,18.212L261.99,394.787z"/>
			<path style="fill:none;stroke:#0F0F0F;stroke-miterlimit:10;" d="M254.264,231.121c0.495,2.412,3.519,6.225,5.501,7.686
				c1.982,1.461,4.342,2.333,6.737,2.905"/>
		</g>
		<path style="fill:none;stroke:#0F0F0F;stroke-miterlimit:10;" d="M232.875,231.989c0,0-0.625,4.375-3.25,6.375"/>
	</g>
</g>
</svg>
